<svg version="1.1"
      xmlns="http://www.w3.org/2000/svg"
      xmlns:xlink="http://www.w3.org/1999/xlink"  id="snapshot-63214" width="250" height="250" viewBox="0 0 250 250"><desc>This image was made on Patterninja.com</desc><defs>
<!-- image 94847 -->
<g id="transformed-94847" data-image="94847" transform="translate(185.25513722731603, 19.25513722731602) rotate(350, 54.74486277268397, 54.74486277268398)"><g><svg version="1.1" width="109.48972554536795px" height="109.48972554536796px" viewBox="0 0 109.48972554536795 109.48972554536796"><g id="original-94847"><svg xmlns="http://www.w3.org/2000/svg" viewBox="0 0 71 71" xmlns:xlink="http://www.w3.org/1999/xlink" version="1.1" preserveAspectRatio="xMidYMid meet">
  <path fill-rule="evenodd" d="M40 8.024l7.648 7.652-35.181 35.2-7.648-7.652z" fill="rgba(74, 59, 237, 1)" stroke="none"/>
  <path fill-rule="evenodd" d="M46.65 14.676l8.648 8.651-35.181 35.2-8.648-8.652z" fill="rgba(74, 59, 237, 1)" stroke="none"/>
  <path fill-rule="evenodd" d="M54.3 22.327l8.648 8.652-35.181 35.2-8.648-8.651z" fill="rgba(74, 59, 237, 1)" stroke="none"/>
  <path fill-rule="evenodd" d="M55.3 1.9l13.767 13.774a6.5 6.5 0 0 1 0 9.182L46.12 1.9a6.489 6.489 0 0 1 9.18 0z" fill="rgba(140, 54, 0, 1)" stroke="none"/>
  <path fill-rule="evenodd" d="M47.12.9l22.945 22.956a1.083 1.083 0 0 1 0 1.53l-5.589 5.591a1.081 1.081 0 0 1-1.53 0L40 8.024a1.084 1.084 0 0 1 0-1.531L45.589.902A1.082 1.082 0 0 1 47.12.9z" fill="rgba(0, 0, 0, 1)" stroke="none"/>
  <path fill-rule="evenodd" d="M4.821 43.222l22.944 22.955L1 70z" fill="rgba(237, 128, 59, 1)" stroke="none"/>
  <path fill-rule="evenodd" d="M11.366 68.664L0 71l2.338-11.373z" fill="rgba(74, 59, 237, 1)" stroke="none"/>
</svg>
</g></svg></g></g>
<!-- /image 94847 -->

<!-- image 84710 -->
<g id="transformed-84710" data-image="84710" transform="translate(65.2087079891638, 158.1460555439784) rotate(280, 44.79129201083621, 47.853944456021594)"><g><svg version="1.1" width="89.58258402167242px" height="95.70788891204319px" viewBox="0 0 89.58258402167242 95.70788891204319"><g id="original-84710"><svg xmlns="http://www.w3.org/2000/svg" viewBox="0 0 60 64" xmlns:xlink="http://www.w3.org/1999/xlink" version="1.1" preserveAspectRatio="xMidYMid meet">
  <path fill-rule="evenodd" d="M30 63.99L0 46V15L30 0l30 15v31z" fill="rgba(197, 163, 70, 1)" stroke="none"/>
  <path fill-rule="evenodd" d="M0 30.5V15l30 15v33.99L0 46z" fill="rgba(52, 43, 19, 1)" stroke="none"/>
  <path fill-rule="evenodd" d="M60 30.5V15L30 30v33.99L60 46z" fill="rgba(120, 99, 43, 1)" stroke="none"/>
</svg>
</g></svg></g></g>
<!-- /image 84710 -->
</defs><rect x="0" y="0" width="250" height="250" fill="rgba(0, 0, 0, 0)"></rect><use xlink:href="#transformed-94847" transform="translate(-250, -250)"></use><use xlink:href="#transformed-94847" transform="translate(0, -250)"></use><use xlink:href="#transformed-94847" transform="translate(250, -250)"></use><use xlink:href="#transformed-94847" transform="translate(-250, 0)"></use><use xlink:href="#transformed-94847" transform="translate(0, 0)"></use><use xlink:href="#transformed-94847" transform="translate(250, 0)"></use><use xlink:href="#transformed-94847" transform="translate(-250, 250)"></use><use xlink:href="#transformed-94847" transform="translate(0, 250)"></use><use xlink:href="#transformed-94847" transform="translate(250, 250)"></use><use xlink:href="#transformed-84710" transform="translate(-250, -250)"></use><use xlink:href="#transformed-84710" transform="translate(0, -250)"></use><use xlink:href="#transformed-84710" transform="translate(250, -250)"></use><use xlink:href="#transformed-84710" transform="translate(-250, 0)"></use><use xlink:href="#transformed-84710" transform="translate(0, 0)"></use><use xlink:href="#transformed-84710" transform="translate(250, 0)"></use><use xlink:href="#transformed-84710" transform="translate(-250, 250)"></use><use xlink:href="#transformed-84710" transform="translate(0, 250)"></use><use xlink:href="#transformed-84710" transform="translate(250, 250)"></use></svg>